<svg xmlns="http://www.w3.org/2000/svg" xmlns:xlink="http://www.w3.org/1999/xlink" version="1.1" x="0px" y="0px" viewBox="0 0 100 125" enable-background="new 0 0 100 100" xml:space="preserve"><g><g><g><path d="M66.046,50.783H33.953c-0.742,0-1.344-0.602-1.344-1.344s0.602-1.344,1.344-1.344h32.092     c0.742,0,1.344,0.602,1.344,1.344S66.788,50.783,66.046,50.783z"/></g><g><path d="M54.281,55.71h-8.563c-0.742,0-1.344-0.602-1.344-1.344c0-0.742,0.602-1.344,1.344-1.344h8.563     c0.742,0,1.344,0.602,1.344,1.344C55.625,55.108,55.023,55.71,54.281,55.71z"/></g><g><g><path d="M33.876,78.937H16.903c-0.742,0-1.344-0.602-1.344-1.344V60.62c0-0.742,0.602-1.344,1.344-1.344h16.974      c0.742,0,1.344,0.602,1.344,1.344v16.973C35.22,78.335,34.618,78.937,33.876,78.937z M18.246,76.249h14.286V61.964H18.246      V76.249z"/></g><g><path d="M58.486,78.937H41.512c-0.742,0-1.344-0.602-1.344-1.344V60.62c0-0.742,0.602-1.344,1.344-1.344h16.974      c0.742,0,1.344,0.602,1.344,1.344v16.973C59.83,78.335,59.228,78.937,58.486,78.937z M42.856,76.249h14.286V61.964H42.856      V76.249z"/></g></g><g><g><path d="M83.096,78.937H66.123c-0.742,0-1.344-0.602-1.344-1.344V60.62c0-0.742,0.602-1.344,1.344-1.344h16.973      c0.742,0,1.344,0.602,1.344,1.344v16.973C84.44,78.335,83.838,78.937,83.096,78.937z M67.467,76.249h14.285V61.964H67.467      V76.249z"/></g></g><g><path d="M50,45.009c-2.818,0-5.11-2.292-5.11-5.11c0-2.818,2.292-5.11,5.11-5.11c2.817,0,5.109,2.292,5.109,5.11     C55.109,42.717,52.817,45.009,50,45.009z M50,37.478c-1.335,0-2.422,1.086-2.422,2.422c0,1.335,1.087,2.422,2.422,2.422     s2.421-1.086,2.421-2.422C52.421,38.564,51.335,37.478,50,37.478z"/></g></g><g><path d="M93.656,15.452H6.344C5.598,15.452,5,16.05,5,16.796v66.408c0,0.746,0.598,1.344,1.344,1.344h87.312    c0.739,0,1.344-0.598,1.344-1.344V16.796C95,16.05,94.395,15.452,93.656,15.452z M92.312,81.86H7.688V30.329h84.624V81.86z     M92.312,27.641H7.688V18.14h84.624V27.641z"/></g><g><ellipse cx="13.173" cy="22.714" rx="2.108" ry="2.103"/></g><g><ellipse cx="19.919" cy="22.714" rx="2.108" ry="2.103"/></g><g><ellipse cx="26.665" cy="22.714" rx="2.108" ry="2.103"/></g></g></svg>
